<svg width="24" height="20" viewBox="0 0 24 20" fill="none" xmlns="http://www.w3.org/2000/svg">
<path d="M11.293 11.2929C11.6835 10.9024 12.3165 10.9024 12.707 11.2929L15.5357 14.1209C15.9263 14.5114 15.926 15.145 15.5355 15.5355V15.5355C15.145 15.9261 14.5114 15.9264 14.1209 15.5359L13 14.415V19C13 19.5523 12.5523 20 12 20V20C11.4477 20 11 19.5523 11 19V14.413L9.87912 15.5351C9.48866 15.926 8.85504 15.926 8.46436 15.5353V15.5353C8.07381 15.1448 8.07369 14.5114 8.46429 14.1209L11.293 11.2929ZM12 2.2216e-08C13.717 8.17698e-05 15.3741 0.631114 16.6562 1.77312C17.9383 2.91512 18.7561 4.48846 18.954 6.194C20.1983 6.53332 21.2837 7.2991 22.0207 8.35753C22.7576 9.41595 23.0992 10.6997 22.9856 11.9844C22.8721 13.2691 22.3107 14.473 21.3996 15.3858C20.748 16.0386 19.9471 16.5128 19.0739 16.7723C18.5106 16.9398 18.001 16.4715 18.001 15.8838V15.8313C18.001 15.3337 18.3754 14.9258 18.8358 14.7368C18.9966 14.6707 19.1527 14.5926 19.3026 14.503C19.7015 14.2644 20.049 13.9487 20.3246 13.5744C20.6002 13.2001 20.7985 12.7746 20.9079 12.3228C21.0173 11.8711 21.0356 11.402 20.9617 10.9431C20.8879 10.4841 20.7233 10.0445 20.4777 9.64985C20.2321 9.25519 19.9104 8.91342 19.5312 8.64447C19.1521 8.37552 18.7232 8.18479 18.2695 8.08341C18.0591 8.03639 17.8453 8.00903 17.6309 8.00138C17.2757 7.98871 16.9685 7.67129 16.9907 7.31647C17.0216 6.82364 16.9794 6.32756 16.8642 5.84455C16.6913 5.11913 16.3583 4.44158 15.8896 3.86153C15.4209 3.28147 14.8284 2.81361 14.1555 2.49219C13.4826 2.17078 12.7463 2.00397 12.0005 2.00397C11.2548 2.00397 10.5185 2.17078 9.84554 2.49219C9.17262 2.81361 8.58011 3.28147 8.11142 3.86153C7.64273 4.44158 7.30972 5.11913 7.1368 5.84455C7.02219 6.32535 6.97982 6.8191 7.00987 7.30971C7.03172 7.66635 6.72092 7.9849 6.36376 7.99535C5.69899 8.01479 5.04789 8.22353 4.49036 8.60476C3.72409 9.12874 3.19735 9.93565 3.02602 10.848C2.85469 11.7603 3.0528 12.7034 3.57678 13.4697C3.98095 14.0607 4.54166 14.485 5.18484 14.7393C5.63944 14.919 6.00002 15.3223 6.00002 15.8111V15.8839C6.00002 16.4716 5.49057 16.9398 4.9272 16.7725C4.05389 16.5131 3.2529 16.039 2.60115 15.3862C1.68988 14.4735 1.12834 13.2696 1.01469 11.9848C0.901037 10.7001 1.2425 9.41628 1.97939 8.35777C2.71627 7.29926 3.80172 6.53339 5.04602 6.194C5.24372 4.48838 6.06142 2.91491 7.3436 1.77287C8.62577 0.63082 10.283 -0.000136703 12 2.2216e-08Z" fill="#ED1164"/>
</svg>
